<?xml version="1.0" encoding="utf-8"?>
<!-- Generator: Avocode 2.4.5 - http://avocode.com -->
<svg height="24" width="36" xmlns:xlink="http://www.w3.org/1999/xlink" xmlns="http://www.w3.org/2000/svg" viewBox="0 0 36 24">
    <path fill="#ffffff" fill-rule="evenodd" d="M 29.02 9.06 C 28 3.88 23.46 0 18 0 C 13.67 0 9.9 2.46 8.02 6.06 C 3.51 6.54 0 10.37 0 15 C 0 19.97 4.04 24 9 24 L 28.5 24 C 32.64 24 36 20.64 36 16.5 C 36 12.54 32.92 9.33 29.02 9.06 L 29.02 9.06 Z M 25.5 13.5 L 18 21 L 10.5 13.5 L 15 13.5 L 15 7.5 L 21 7.5 L 21 13.5 L 25.5 13.5 L 25.5 13.5 Z M 25.5 13.5" />
</svg>